<svg id="visual" viewBox="0 0 960 540" width="960" height="540" xmlns="http://www.w3.org/2000/svg" xmlns:xlink="http://www.w3.org/1999/xlink" version="1.1"><rect x="0" y="0" width="960" height="540" fill="#001220"></rect><defs><linearGradient id="grad1_0" x1="43.8%" y1="100%" x2="100%" y2="0%"><stop offset="14.444444444444446%" stop-color="#fbae3c" stop-opacity="1"></stop><stop offset="85.55555555555554%" stop-color="#fbae3c" stop-opacity="1"></stop></linearGradient></defs><defs><linearGradient id="grad1_1" x1="43.8%" y1="100%" x2="100%" y2="0%"><stop offset="14.444444444444446%" stop-color="#fbae3c" stop-opacity="1"></stop><stop offset="85.55555555555554%" stop-color="#96446e" stop-opacity="1"></stop></linearGradient></defs><defs><linearGradient id="grad1_2" x1="43.8%" y1="100%" x2="100%" y2="0%"><stop offset="14.444444444444446%" stop-color="#001220" stop-opacity="1"></stop><stop offset="85.55555555555554%" stop-color="#96446e" stop-opacity="1"></stop></linearGradient></defs><defs><linearGradient id="grad2_0" x1="0%" y1="100%" x2="56.3%" y2="0%"><stop offset="14.444444444444446%" stop-color="#fbae3c" stop-opacity="1"></stop><stop offset="85.55555555555554%" stop-color="#fbae3c" stop-opacity="1"></stop></linearGradient></defs><defs><linearGradient id="grad2_1" x1="0%" y1="100%" x2="56.3%" y2="0%"><stop offset="14.444444444444446%" stop-color="#96446e" stop-opacity="1"></stop><stop offset="85.55555555555554%" stop-color="#fbae3c" stop-opacity="1"></stop></linearGradient></defs><defs><linearGradient id="grad2_2" x1="0%" y1="100%" x2="56.3%" y2="0%"><stop offset="14.444444444444446%" stop-color="#96446e" stop-opacity="1"></stop><stop offset="85.55555555555554%" stop-color="#001220" stop-opacity="1"></stop></linearGradient></defs><g transform="translate(960, 540)"><path d="M-189 0C-184 -33 -179.1 -66 -163.7 -94.5C-148.3 -123 -122.5 -147 -93.5 -161.9C-64.5 -176.9 -32.2 -183 0 -189L0 0Z" fill="#3d3056"></path><path d="M-126 0C-122.7 -22 -119.4 -44 -109.1 -63C-98.9 -82 -81.7 -98 -62.3 -108C-43 -118 -21.5 -122 0 -126L0 0Z" fill="#e1685e"></path><path d="M-63 0C-61.3 -11 -59.7 -22 -54.6 -31.5C-49.4 -41 -40.8 -49 -31.2 -54C-21.5 -59 -10.7 -61 0 -63L0 0Z" fill="#fbae3c"></path></g><g transform="translate(0, 0)"><path d="M189 0C184.2 33.4 179.5 66.7 163.7 94.5C147.9 122.3 121.1 144.5 92 159.3C62.9 174.2 31.4 181.6 0 189L0 0Z" fill="#3d3056"></path><path d="M126 0C122.8 22.2 119.6 44.5 109.1 63C98.6 81.5 80.7 96.4 61.3 106.2C41.9 116.1 21 121.1 0 126L0 0Z" fill="#e1685e"></path><path d="M63 0C61.4 11.1 59.8 22.2 54.6 31.5C49.3 40.8 40.4 48.2 30.7 53.1C21 58.1 10.5 60.5 0 63L0 0Z" fill="#fbae3c"></path></g></svg>